<svg xmlns="http://www.w3.org/2000/svg" viewBox="0 0 420 140" width="420" height="140" role="img" aria-label="jigjoy-ai/mozaik">
  <rect width="420" height="140" fill="#000000" rx="10"/>
  <rect x="0.5" y="0.5" width="419" height="139" fill="none" stroke="#78AAF6" stroke-opacity="0.22" stroke-width="1" rx="10"/>

  <g transform="translate(20, 26)" fill="none" stroke="#78AAF6" stroke-width="1.6" stroke-linecap="round" stroke-linejoin="round">
    <path d="M2 1.5 h11 a2 2 0 0 1 2 2 v11 a1.5 1.5 0 0 1 -1.5 1.5 h-10 a1.5 1.5 0 0 1 -1.5 -1.5 v-11.5 a2 2 0 0 1 2 -2 z"/>
    <path d="M4 12 h9"/>
  </g>

  <text x="44" y="38" font-family="Inter, -apple-system, BlinkMacSystemFont, 'Segoe UI', Roboto, sans-serif" font-size="16" font-weight="700" fill="#78AAF6">jigjoy-ai/mozaik</text>

  <text x="24" y="74" font-family="Inter, -apple-system, BlinkMacSystemFont, 'Segoe UI', Roboto, sans-serif" font-size="13" fill="#FFFFFF" fill-opacity="0.72">TS runtime · reactive agents on a shared event bus</text>

  <circle cx="30" cy="117" r="5" fill="#3178C6"/>
  <text x="42" y="121" font-family="Inter, -apple-system, BlinkMacSystemFont, 'Segoe UI', Roboto, sans-serif" font-size="12" fill="#FFFFFF" fill-opacity="0.7">TypeScript</text>

  <path d="M170 113 l1.7 3.7 4 0.5 -2.9 2.9 0.7 4 -3.5 -1.9 -3.5 1.9 0.7 -4 -2.9 -2.9 4 -0.5 z" fill="#90E86F"/>
  <text x="184" y="121" font-family="Inter, -apple-system, BlinkMacSystemFont, 'Segoe UI', Roboto, sans-serif" font-size="12" fill="#FFFFFF" fill-opacity="0.7">25</text>

  <g transform="translate(228, 109)" fill="#90E86F" stroke="#90E86F" stroke-width="1.4" stroke-linecap="round">
    <circle cx="0" cy="0" r="2"/>
    <circle cx="10" cy="0" r="2"/>
    <circle cx="5" cy="11" r="2"/>
    <path d="M0 2 v2 a3 3 0 0 0 3 3 h4 a3 3 0 0 0 3 -3 v-2" fill="none"/>
    <line x1="5" y1="2" x2="5" y2="9" />
  </g>
  <text x="246" y="121" font-family="Inter, -apple-system, BlinkMacSystemFont, 'Segoe UI', Roboto, sans-serif" font-size="12" fill="#FFFFFF" fill-opacity="0.7">3</text>
</svg>
